<?xml version="1.0" encoding="UTF-8"?>
<svg width="32px" height="21px" viewBox="0 0 32 21" version="1.1" xmlns="http://www.w3.org/2000/svg" xmlns:xlink="http://www.w3.org/1999/xlink">
    <title>Group@2x</title>
    <g id="Symbols" stroke="none" stroke-width="1" fill="none" fill-rule="evenodd">
        <g id="Variasi-2" transform="translate(-8.000000, -10.000000)" fill="#D8D8D8">
            <g id="Group" transform="translate(8.000000, 10.000000)">
                <circle id="Oval-Copy-6" cx="26.5" cy="15.5" r="2.5"></circle>
                <circle id="Oval-Copy-7" cx="5.5" cy="15.5" r="2.5"></circle>
                <path d="M26.5,10 C29.5375661,10 32,12.4624339 32,15.5 C32,18.5375661 29.5375661,21 26.5,21 C23.4624339,21 21,18.5375661 21,15.5 C21,12.4624339 23.4624339,10 26.5,10 Z M26.5,11.3026316 C24.195392,11.3026316 22.32,13.1780236 22.32,15.5 C22.32,17.8219764 24.195392,19.6973684 26.5,19.6973684 C28.804608,19.6973684 30.68,17.8219764 30.68,15.5 C30.68,13.1780236 28.804608,11.3026316 26.5,11.3026316 Z" id="Oval-Copy-8" fill-rule="nonzero"></path>
                <path d="M5.5,10 C8.53756612,10 11,12.4624339 11,15.5 C11,18.5375661 8.53756612,21 5.5,21 C2.46243388,21 0,18.5375661 0,15.5 C0,12.4624339 2.46243388,10 5.5,10 Z M5.5,11.3026316 C3.19539202,11.3026316 1.32,13.1780236 1.32,15.5 C1.32,17.8219764 3.19539202,19.6973684 5.5,19.6973684 C7.80460798,19.6973684 9.68,17.8219764 9.68,15.5 C9.68,13.1780236 7.80460798,11.3026316 5.5,11.3026316 Z" id="Oval-Copy-9" fill-rule="nonzero"></path>
                <path d="M1.26792423,7.32893743 L2.70621335,6.09656526 C3.02652298,5.82211372 3.40088957,5.61706196 3.80541193,5.49450141 L4.50976086,5.2811006 C4.82463483,5.18570135 5.15199509,5.13721156 5.48117277,5.13721156 L7.10745991,5.13721156 C7.61945926,5.13721156 8.11704757,5.30572671 8.52253094,5.6164449 L10.0670808,6.8000193 C10.2850618,6.96705614 10.5428593,7.07511994 10.8153536,7.113681 L13.6467568,7.51435704 C13.8246924,7.53953696 13.9998631,7.45324244 14.087458,7.29725403 L14.7685011,6.08445671 C15.1113545,5.47390547 15.6660082,5.00821038 16.328948,4.77428328 L17.391626,4.39930328 C17.6688613,4.30147717 17.9607543,4.25099115 18.2549403,4.24998386 L18.3922954,4.24895777 L18.3922954,4.24895777 L18.5250449,4.24683588 L18.5250449,4.24683588 L18.653189,4.24361819 L18.653189,4.24361819 L18.7767276,4.2393047 L18.7767276,4.2393047 L18.8956606,4.23389541 L18.8956606,4.23389541 L19.0099881,4.22739032 L19.0099881,4.22739032 L19.1197101,4.21978943 L19.1197101,4.21978943 L19.2248266,4.21109274 L19.2248266,4.21109274 L19.3253376,4.20130025 C19.3580736,4.19785345 19.3900421,4.19422402 19.421243,4.19041195 L19.512543,4.17842786 L19.512543,4.17842786 L19.5992374,4.16534797 C19.6133027,4.16307667 19.627176,4.16075971 19.6408575,4.1583971 L19.7206437,4.14367351 C19.7335576,4.14112826 19.7462796,4.13853735 19.7588097,4.13590078 L19.8316875,4.11953349 C20.0787004,4.06033032 20.2410869,3.98099181 20.3188471,3.88151797 C20.3893459,3.79133317 20.4623584,3.62429751 20.5244012,3.41860624 L20.5471267,3.33973463 L20.5471267,3.33973463 L20.5686657,3.25768666 C20.5825945,3.20202869 20.595627,3.14455155 20.6075525,3.08585203 L20.6245842,2.99696057 C20.7376259,2.36934731 20.7170099,1.6398659 20.3188471,1.49938771 C20.2909322,1.48953888 20.2379457,1.49975039 20.164774,1.52538007 L20.113056,1.54469975 L20.113056,1.54469975 L20.055679,1.56828212 L20.055679,1.56828212 L19.9929646,1.59582153 L19.9929646,1.59582153 L19.9252345,1.62701231 L19.9252345,1.62701231 L19.8149389,1.67997619 L19.8149389,1.67997619 L19.6951678,1.73943636 L19.6951678,1.73943636 L19.0428541,2.07250142 L19.0428541,2.07250142 L18.889899,2.14928822 L18.889899,2.14928822 L18.7347073,2.22569404 L18.7347073,2.22569404 L18.5783648,2.30068726 L18.5783648,2.30068726 L18.4740335,2.34938855 L18.4740335,2.34938855 L18.369995,2.39669788 L18.369995,2.39669788 L18.2665711,2.4423096 L18.2665711,2.4423096 L18.1640836,2.48591804 C18.1470982,2.4930022 18.1301653,2.5 18.1132915,2.50687552 L18.0128118,2.54690596 C17.9962013,2.55335557 17.9796633,2.55968988 17.9632045,2.5659025 L17.8654564,2.6016672 C17.7204213,2.65297124 17.5828897,2.69338787 17.4577478,2.71827495 C17.2464454,2.76029687 16.6931216,2.40129864 16.8025038,2.03715693 C16.9012525,1.70841476 17.2956091,1.3312869 17.7454064,1.0200312 L17.8360339,0.958692214 C18.1249111,0.767447762 18.4296041,0.605680709 18.6891014,0.502416786 L18.7956318,0.460988514 L18.7956318,0.460988514 L18.9031366,0.421063187 C18.9211217,0.414536443 18.9391372,0.408073994 18.9571782,0.401676677 L19.0656875,0.36408106 L19.0656875,0.36408106 L19.1745621,0.328088778 L19.1745621,0.328088778 L19.2835581,0.293739987 L19.2835581,0.293739987 L19.3924319,0.261074842 L19.3924319,0.261074842 L19.5009398,0.2301335 L19.5009398,0.2301335 L19.6088383,0.200956116 L19.6088383,0.200956116 L19.7158834,0.173582847 L19.7158834,0.173582847 L19.8218318,0.148053848 C19.8393849,0.143954934 19.8568821,0.139934539 19.8743184,0.135993498 L19.9781645,0.113306197 L19.9781645,0.113306197 L20.0803045,0.0925635556 L20.0803045,0.0925635556 L20.1804948,0.0738057304 C20.1970172,0.0708470584 20.2134481,0.0679727603 20.2297826,0.0651836725 L20.3265914,0.0494783636 C20.3425197,0.0470334638 20.3583414,0.0446754476 20.3740514,0.0424051515 L20.4669304,0.0298427097 L20.4669304,0.0298427097 L20.556885,0.0194257075 L20.556885,0.0194257075 L20.6436715,0.0111943008 C20.6578584,0.0100067635 20.6719031,0.00891196585 20.6858005,0.00791074445 L20.7673779,0.00303302337 C21.059719,-0.0106855206 21.2758847,0.021696639 21.3618202,0.109087422 C21.406218,0.154237074 21.4561687,0.228700833 21.5103347,0.327035841 L21.5470552,0.396069265 C21.565713,0.432294489 21.5848061,0.471037681 21.6042851,0.512097256 L21.6437427,0.597245186 L21.6437427,0.597245186 L21.684141,0.688211759 L21.684141,0.688211759 L21.725392,0.784638595 C21.7323334,0.801144847 21.7393065,0.817863677 21.7463097,0.83478762 L21.7886746,0.938732896 L21.7886746,0.938732896 L21.8316719,1.04724249 L21.8316719,1.04724249 L21.8752136,1.15995804 L21.8752136,1.15995804 L21.9413542,1.33613354 L21.9413542,1.33613354 L22.0082244,1.51975655 L22.0082244,1.51975655 L22.0980056,1.77408169 L22.0980056,1.77408169 L22.1878506,2.03662955 L22.1878506,2.03662955 L22.2325769,2.17009106 L22.2325769,2.17009106 L22.3431139,2.50725077 L22.3431139,2.50725077 L22.4081188,2.71015879 L22.4081188,2.71015879 L22.5133109,3.04547671 L22.5133109,3.04547671 L22.6133734,3.37236397 L22.6133734,3.37236397 L22.7422233,3.80518091 L22.7422233,3.80518091 L22.8086736,4.03424498 L22.8086736,4.03424498 L22.8545459,4.19513302 L22.8545459,4.19513302 L22.9348058,4.48361351 L22.9348058,4.48361351 L22.9920738,4.69619543 L22.9920738,4.69619543 L23.0147396,4.77560382 L23.0147396,4.77560382 L23.0408034,4.86244893 L23.0408034,4.86244893 L23.091794,5.02371682 L23.091794,5.02371682 L23.1522232,5.20564227 L23.1522232,5.20564227 L23.2073625,5.36605608 L23.2073625,5.36605608 L23.3013978,5.63146587 L23.3013978,5.63146587 L23.4090248,5.92662254 L23.4090248,5.92662254 L23.5302435,6.2515261 L23.5302435,6.2515261 L23.6888438,6.66817702 L23.6888438,6.66817702 L23.8395113,7.05753217 L23.8395113,7.05753217 L24.0615439,7.62294531 L24.0615439,7.62294531 L24.2756436,8.16106268 L24.2756436,8.16106268 L24.5780982,8.91242165 L24.5780982,8.91242165 L24.9892905,9.92164444 C25.0137534,9.98134299 24.9953107,10.049928 24.944144,10.0895352 C24.4219807,10.4937326 24.0593052,10.6583889 23.8561173,10.5835043 C23.6533651,10.5087801 23.5047637,10.2769853 23.3887686,10.0335552 L23.3564957,9.96381274 L23.3564957,9.96381274 L23.3258857,9.89419089 L23.3258857,9.89419089 L23.2828443,9.79163315 L23.2828443,9.79163315 L23.2057241,9.60259598 L23.2057241,9.60259598 L23.1822636,9.54711146 L23.1822636,9.54711146 L23.1597401,9.49664719 C23.1118737,9.39329097 23.0698189,9.33059372 23.0284647,9.34305729 C23.0202182,9.3455427 23.0114755,9.34862609 23.0022367,9.35230748 L22.9730321,9.36514559 L22.9730321,9.36514559 L22.9408509,9.38157165 L22.9408509,9.38157165 L22.905693,9.40158563 L22.905693,9.40158563 L22.8675586,9.42518756 L22.8675586,9.42518756 L22.8264475,9.45237741 L22.8264475,9.45237741 L22.7823599,9.48315521 L22.7823599,9.48315521 L22.7352956,9.51752094 L22.7352956,9.51752094 L22.6852548,9.5554746 C22.6766666,9.5620992 22.6679544,9.56887331 22.6591181,9.57579691 L22.6046123,9.61913247 L22.6046123,9.61913247 L22.54713,9.66605597 L22.54713,9.66605597 L22.4553252,9.7431686 L22.4553252,9.7431686 L22.3904014,9.79906194 L22.3904014,9.79906194 L22.3225009,9.85854322 L22.3225009,9.85854322 L22.2516237,9.92161243 L22.2516237,9.92161243 L22.17777,9.98826957 L22.17777,9.98826957 L22.0211328,10.1323477 L22.0211328,10.1323477 L21.8958413,10.2498246 L21.8958413,10.2498246 L21.7183678,10.4190182 L21.7183678,10.4190182 L21.5289879,10.6025636 L21.5289879,10.6025636 L21.3791393,10.7496409 C20.9132759,11.2091687 20.6512575,11.8345341 20.6512575,12.486893 L20.6512575,16.3336732 C20.6512575,16.5571252 20.5212099,16.7604074 20.3176227,16.8551902 L18.8514162,17.5378028 C18.0056646,17.9315541 17.0647052,18.078166 16.1383003,17.9605364 L13.4830798,17.6233918 C13.2512976,17.5939614 13.0599854,17.429028 12.9979141,17.2051224 L11.6612822,12.3835813 C11.5314912,11.9153952 11.3038661,11.4796601 10.9932519,11.1047936 L10.406188,10.3962922 C10.0900205,10.0147237 9.67065392,9.73099077 9.19755882,9.57856398 L7.98480524,9.18782618 C7.74294872,9.10990229 7.49092563,9.06755805 7.23673822,9.06213798 L3.28850468,8.97794937 L2.20404049,8.97794937 C1.85840339,8.97794937 1.53080865,8.82459595 1.31066961,8.55974524 L1.17683275,8.39872524 C0.909322974,8.07688247 0.949799965,7.60151649 1.26792423,7.32893743 Z" id="Rectangle-Copy"></path>
                <path d="M24.1749175,2.14717615 L25.2336026,2.04071674 C25.8912027,1.97458971 26.5551603,1.98905887 27.2087912,2.08376064 L27.6729471,2.1510102 C28.4573757,2.26466269 29.0271928,2.91191741 28.9989979,3.65726993 L28.9063447,6.10662637 C28.8700785,7.06534887 28.0661761,7.84205361 27.0473146,7.90276159 L25.421622,7.99962709 C25.3244049,8.00541969 25.2374547,7.9431432 25.2176309,7.8535221 L24.0041345,2.36745355 C23.9821391,2.26801508 24.0500936,2.17064901 24.1559151,2.14998035 L24.1749175,2.14717615 L24.1749175,2.14717615 Z" id="Rectangle-Copy-2"></path>
            </g>
        </g>
    </g>
</svg>